<svg width="512" height="512" viewBox="0 0 512 512" fill="none" xmlns="http://www.w3.org/2000/svg">
<path fill-rule="evenodd" clip-rule="evenodd" d="M301.471 0C297.769 0 294.331 0.796499 291.158 1.85844C297.901 6.37177 301.604 12.3453 303.455 19.1153C303.587 20.0445 303.852 20.7083 303.984 21.6375C304.117 22.434 304.248 23.2304 304.248 24.0269C304.777 35.7085 301.207 37.1687 298.695 44.0715C294.86 52.9654 295.918 62.5231 300.546 70.2223C300.943 71.1515 301.471 72.2135 302.133 73.1427C297.108 39.5581 325.008 34.5138 330.164 24.0269C330.561 14.8675 323.024 8.76119 317.074 4.51334C311.388 1.06197 306.232 0 301.471 0V0ZM343.519 7.56649C342.99 10.6196 343.387 9.82315 343.255 11.4161C343.122 12.4781 343.122 13.8055 342.99 14.8675C342.726 15.9294 342.461 16.9914 342.065 18.0534C341.801 19.1153 341.404 20.1773 341.007 21.2392C340.478 22.3013 340.082 23.2304 339.553 24.2924C339.156 24.8236 338.892 25.3543 338.495 25.8854C338.231 26.2836 337.966 26.6818 337.702 27.0801C337.04 28.0093 336.379 28.9385 335.718 29.735C334.925 30.5315 334.264 31.4606 333.338 32.1244C333.338 32.2573 333.338 32.2573 333.338 32.2573C332.545 32.9211 331.751 33.7175 330.826 34.3812C328.049 36.5051 324.876 38.0981 321.967 40.0893C321.041 40.753 320.116 41.284 319.322 42.0805C318.397 42.7442 317.603 43.4079 316.81 44.2044C315.884 45.0009 315.223 45.7974 314.43 46.7266C313.769 47.5231 312.975 48.4522 312.447 49.3815C311.785 50.3107 311.124 51.2399 310.595 52.1691C310.066 53.2311 309.67 54.1603 309.141 55.2222C308.744 56.2842 308.348 57.2134 308.083 58.2754C307.686 59.4701 307.422 60.5321 307.158 61.5941C307.025 62.1253 307.025 62.7887 306.893 63.3197C306.761 63.8509 306.761 64.3817 306.629 64.9127C306.629 65.9746 306.497 67.1694 306.497 68.2313C306.497 69.0278 306.497 69.8242 306.629 70.6207C306.629 71.6827 306.761 72.7446 307.026 73.9394C307.158 75.0013 307.422 76.0633 307.687 77.1253C308.084 78.1872 308.348 79.2492 308.745 80.3111C309.009 80.9749 309.406 81.6386 309.67 82.1695L279.259 70.3552C274.102 68.895 269.077 67.5676 263.92 66.3729C261.144 65.7092 258.367 65.0454 255.59 64.3817C247.657 62.7888 239.591 61.5941 231.525 60.7976C231.261 60.7976 231.129 60.6647 230.864 60.6647C222.931 59.8682 215.13 59.47 207.196 59.47C201.378 59.47 195.56 59.7352 189.875 60.1337C181.809 60.6649 173.743 61.7267 165.677 63.0541C163.694 63.3194 161.711 63.7178 159.727 64.1161C155.628 64.9125 151.662 65.8417 147.827 66.771C145.844 67.3022 143.86 67.8329 141.877 68.3639C139.894 69.1603 138.042 70.0896 136.191 70.8861C134.737 71.5498 133.282 72.2135 131.828 72.8773C131.564 73.0102 131.299 73.0102 131.167 73.1426C129.845 73.8063 128.654 74.3372 127.465 75.001C127.068 75.1339 126.803 75.2663 126.539 75.3992C125.084 76.0629 123.63 76.8594 122.44 77.5231C121.514 77.9214 120.589 78.4524 119.795 78.8506C119.399 79.1159 118.87 79.3818 118.605 79.5143C117.415 80.178 116.225 80.8417 115.168 81.5055C113.978 82.1692 112.92 82.8329 111.994 83.4966C111.069 84.1604 110.143 84.6914 109.35 85.3551C109.217 85.488 109.085 85.488 108.953 85.6204C108.16 86.1516 107.234 86.8151 106.441 87.4788C106.441 87.4788 106.308 87.6118 106.176 87.7441C105.515 88.2753 104.854 88.8061 104.193 89.337C103.929 89.47 103.664 89.7353 103.4 89.8682C102.739 90.3994 102.078 91.063 101.416 91.5939C101.284 91.8592 101.02 91.9922 100.887 92.1251C100.094 92.9216 99.3006 93.5853 98.5073 94.3818C98.3748 94.3818 98.3748 94.5147 98.243 94.6471C97.4497 95.3108 96.6563 96.1073 95.863 96.9038C95.7305 97.0367 95.7305 97.169 95.5987 97.169C94.9376 97.8327 94.2765 98.4965 93.6153 99.2929C93.3511 99.5582 92.9542 99.8241 92.6898 100.089C92.0287 100.886 91.2353 101.682 90.442 102.479C90.3095 102.744 90.0453 102.877 89.9129 103.143C88.8551 104.205 87.9295 105.267 86.8717 106.328C86.7392 106.461 86.6074 106.594 86.475 106.727C84.3594 108.983 82.1116 111.24 79.7316 113.231C77.3515 115.355 74.8392 117.346 72.3269 119.072C69.6824 120.93 67.1702 122.523 64.3935 124.116C61.749 125.576 58.9722 126.904 56.0633 128.099C53.2866 129.293 50.3776 130.355 47.4687 131.285C41.9152 132.479 36.2296 134.736 31.3372 135.134C30.2795 135.134 29.0894 135.399 28.0316 135.532C26.8416 135.798 25.7838 136.064 24.726 136.329C23.6683 136.727 22.6104 137.125 21.5526 137.524C20.4948 137.922 19.4371 138.453 18.3793 138.984C17.4537 139.648 16.3959 140.179 15.4703 140.842C14.5447 141.506 13.6191 142.302 12.8258 143.099C11.9002 143.763 10.9746 144.692 10.1813 145.488C9.38794 146.418 8.59458 147.214 7.93348 148.143C7.27237 149.205 6.47901 150.134 5.95009 151.196C5.28898 152.126 4.62787 153.188 4.09895 154.249C3.56984 155.444 3.04116 156.506 2.64449 157.701C2.24781 158.763 1.85113 159.958 1.45446 161.152C1.19021 162.214 0.925346 163.276 0.793348 164.338C0.793348 164.471 0.66092 164.603 0.66092 164.736C0.396675 165.931 0.396674 167.524 0.264241 168.321C0.131812 169.25 0 170.046 0 170.975C0 171.507 4.11626e-07 172.17 0.132429 172.701C0.264857 173.63 0.396669 174.427 0.661538 175.223C0.925781 176.02 1.19065 176.816 1.58708 177.613C1.58708 177.746 1.58708 177.746 1.58708 177.746C1.98375 178.542 2.51268 179.339 3.04154 180.135C3.57065 180.932 4.09939 181.728 4.76049 182.525C5.4216 183.188 6.21496 183.985 7.00831 184.648C7.80167 185.445 8.59502 186.109 9.52056 186.772C12.694 189.56 13.4873 190.489 17.5863 192.613C18.2474 193.011 18.9086 193.277 19.7019 193.675C19.8344 193.675 19.9662 193.808 20.0986 193.808C20.0986 194.073 20.0986 194.206 20.2311 194.472C20.3635 195.534 20.6277 196.596 20.8922 197.658C21.1564 198.852 21.5533 199.914 21.95 200.844C22.3467 201.64 22.6111 202.437 23.0078 203.233C23.1402 203.498 23.272 203.764 23.4045 203.897C23.9336 204.959 24.4623 205.888 24.9911 206.817C25.6523 207.746 26.3134 208.676 26.9745 209.605C27.6356 210.401 28.429 211.331 29.2223 212.127C30.0157 212.923 30.809 213.587 31.7346 214.384C31.7346 214.384 31.8671 214.517 31.9989 214.517C32.7922 215.18 33.5856 215.844 34.3789 216.375C35.3045 217.039 36.2301 217.57 37.2879 218.101C38.2135 218.632 39.2712 219.163 40.329 219.561C41.1224 219.959 42.0479 220.225 42.9735 220.49C43.106 220.623 43.2378 220.623 43.5026 220.756C44.0317 220.889 44.6926 221.021 45.2215 221.154C44.8249 228.322 44.6924 235.092 45.7506 237.482C46.9406 240.136 52.7585 232.039 58.5764 222.747C57.7831 231.906 57.2542 242.659 58.5764 245.844C60.0309 249.163 67.9644 238.809 74.8401 227.393C168.587 205.623 254.137 270.668 263.128 362.528C261.409 348.191 243.823 340.226 235.758 342.218C231.791 352.041 225.047 364.652 214.205 372.484C215.131 363.722 214.734 354.696 212.883 345.934C209.974 358.147 204.288 369.563 196.487 379.386C183.926 380.315 171.364 374.209 164.753 365.05C164.224 364.652 164.092 363.855 163.695 363.324C163.298 362.395 162.902 361.466 162.637 360.536C162.241 359.607 161.976 358.678 161.844 357.749C161.711 356.82 161.711 355.89 161.711 354.828C161.711 354.165 161.711 353.501 161.711 352.837C161.844 351.908 162.108 350.979 162.373 350.05C162.637 349.12 162.902 348.191 163.298 347.262C163.827 346.333 164.224 345.403 164.885 344.474C167.133 338.102 167.133 332.925 163.034 329.872C162.24 329.341 161.447 328.943 160.521 328.545C159.992 328.412 159.331 328.147 158.803 328.014C158.406 327.881 158.141 327.748 157.745 327.615C156.819 327.35 155.894 327.084 154.968 326.952C154.042 326.686 153.117 326.553 152.191 326.553C151.266 326.42 150.208 326.288 149.282 326.288C148.621 326.288 147.96 326.421 147.299 326.421C146.241 326.421 145.316 326.554 144.39 326.819C143.464 326.952 142.539 327.085 141.613 327.35C140.688 327.616 139.762 327.882 138.837 328.28C137.911 328.678 137.118 329.076 136.192 329.474C135.399 329.873 134.605 330.404 133.68 330.802C102.871 350.979 121.251 398.236 142.274 411.909C134.341 413.369 126.275 415.095 124.027 416.821C123.895 416.954 123.763 417.086 123.763 417.086C129.449 420.537 135.399 423.458 141.614 425.98C150.076 428.768 159.067 431.29 163.034 432.352V432.485C174.009 434.741 185.116 435.538 196.355 434.874C254.93 430.759 302.928 386.024 311.655 327.085C311.919 328.28 312.184 329.342 312.448 330.536C312.845 332.926 313.374 335.448 313.638 337.97C313.638 337.97 313.638 337.97 313.638 338.103C313.902 339.298 314.035 340.493 314.167 341.554C314.167 341.82 314.167 341.953 314.167 342.086C314.3 343.28 314.431 344.475 314.431 345.537C314.564 346.997 314.696 348.457 314.696 349.918C314.696 350.581 314.696 351.245 314.696 352.042C314.696 352.705 314.828 353.502 314.828 354.166C314.828 354.962 314.696 355.758 314.696 356.555C314.696 357.219 314.696 357.882 314.696 358.413C314.696 359.343 314.563 360.139 314.563 361.068C314.563 361.599 314.563 362.13 314.431 362.794C314.431 363.723 314.298 364.652 314.298 365.714C314.166 366.113 314.166 366.511 314.166 366.909C314.033 367.971 313.901 368.9 313.769 369.962C313.769 370.361 313.769 370.759 313.637 371.157C313.504 372.484 313.24 373.679 313.108 375.007V375.14V375.273C312.843 376.467 312.578 377.795 312.314 378.989C312.314 379.122 312.314 379.255 312.314 379.388C312.05 380.582 311.785 381.777 311.521 382.972C311.521 383.105 311.388 383.37 311.388 383.503C311.124 384.698 310.859 385.892 310.463 387.087C310.463 387.22 310.463 387.352 310.463 387.485C310.066 388.813 309.669 390.007 309.405 391.202C309.273 391.335 309.273 391.467 309.273 391.467C308.876 392.795 308.479 394.122 308.083 395.45C307.554 396.777 307.157 397.972 306.628 399.299C306.099 400.627 305.703 401.954 305.174 403.149C304.645 404.477 304.116 405.671 303.587 406.999H303.454C302.925 408.193 302.397 409.521 301.735 410.716C301.603 411.114 301.471 411.379 301.339 411.645C301.206 411.778 301.206 411.91 301.075 412.043C292.48 429.433 279.786 444.698 263.919 456.645C262.862 457.309 261.804 458.106 260.746 458.902C260.482 459.167 260.085 459.3 259.82 459.566C258.895 460.23 257.969 460.893 256.911 461.557L257.308 462.354H257.441C259.292 462.088 261.143 461.822 262.994 461.557H263.126C266.564 461.026 270.002 460.362 273.44 459.699C274.365 459.565 275.423 459.3 276.349 459.035C277.01 458.902 277.539 458.77 278.2 458.637C279.126 458.503 280.051 458.238 280.977 458.105C281.77 457.84 282.563 457.707 283.357 457.442C296.579 454.256 309.405 449.875 321.702 444.698C300.678 473.504 272.514 496.734 239.59 512C254.796 510.938 270.002 508.416 284.679 504.168C337.966 488.371 382.79 452.397 409.631 403.945C404.21 434.61 392.046 463.813 374.063 489.301C386.889 480.805 398.657 470.982 409.367 459.831C438.985 428.769 458.422 389.343 465.034 346.998C469.529 367.971 470.852 389.609 468.868 410.981C564.334 277.306 476.802 138.72 440.175 102.215C440.043 101.95 439.911 101.817 439.911 101.551C439.779 101.684 439.779 101.684 439.779 101.817C439.779 101.684 439.779 101.684 439.646 101.551C439.646 103.144 439.514 104.737 439.382 106.33C438.985 109.383 438.589 112.304 438.06 115.224C437.399 118.145 436.605 121.065 435.812 123.985C434.886 126.773 433.828 129.693 432.638 132.481C431.448 135.136 430.126 137.924 428.672 140.579C427.217 143.101 425.63 145.756 423.912 148.145C422.193 150.667 420.342 153.057 418.49 155.313C416.507 157.703 414.391 159.827 412.276 161.951C410.954 163.145 409.764 164.207 408.441 165.269C407.383 166.198 406.458 166.995 405.4 167.924C403.02 169.782 400.64 171.508 397.996 173.101C395.483 174.694 392.839 176.287 390.194 177.614C387.418 178.942 384.641 180.137 381.864 181.331C379.087 182.393 376.178 183.322 373.269 184.119C370.361 184.915 367.319 185.579 364.41 186.11C361.369 186.641 358.328 186.907 355.419 187.172C353.304 187.305 351.188 187.437 349.072 187.437C346.031 187.437 342.99 187.172 340.081 186.906C337.04 186.641 333.999 186.242 331.09 185.579C328.049 185.048 325.14 184.251 322.231 183.322H322.098C325.007 183.057 327.916 182.791 330.825 182.26C333.866 181.729 336.775 181.065 339.684 180.269C342.593 179.472 345.502 178.543 348.279 177.481C351.188 176.419 353.965 175.092 356.609 173.764C359.386 172.437 361.898 170.977 364.542 169.384C367.055 167.658 369.567 165.932 371.947 164.074C374.327 162.216 376.575 160.224 378.691 158.1C380.938 156.109 382.922 153.853 384.905 151.596C386.888 149.207 388.74 146.817 390.459 144.428C390.723 144.029 390.988 143.498 391.252 143.1C392.574 140.976 393.896 138.852 395.086 136.728C396.541 134.074 397.863 131.419 399.053 128.631C400.243 125.843 401.301 123.056 402.227 120.135C403.152 117.348 403.813 114.427 404.474 111.507C405.004 108.454 405.532 105.533 405.797 102.613C406.061 99.5598 406.326 96.5066 406.326 93.5862C406.326 91.4623 406.193 89.3384 406.061 87.2145C405.797 84.1613 405.4 81.2409 405.004 78.3205C404.475 75.2674 403.814 72.347 403.02 69.4265C402.095 66.6389 401.169 63.7185 400.111 60.9309C399.054 58.1432 397.731 55.3556 396.409 52.7006C394.955 50.0457 393.5 47.3908 391.913 44.8687C390.195 42.3465 388.476 39.9571 386.624 37.5677C384.641 35.311 382.658 33.0543 380.542 30.7977C379.484 29.7357 378.294 28.541 377.104 27.4791C371.154 22.8329 364.94 18.4523 358.725 14.47C357.799 13.9388 357.006 13.5408 356.081 13.1425C351.717 10.3549 347.618 8.89464 343.519 7.56723L343.519 7.56649Z" fill="url(#paint0_linear_2_17)"/>
<path d="M161.949 158.737L169.633 195.314C169.633 195.314 170.748 198.792 172.432 199.029C174.115 199.265 202.819 176.733 202.819 176.733L238.226 126.859L163.661 149.815L161.949 158.737Z" fill="#83D4F8"/>
<path d="M177.37 170.008L171.349 195.327C171.349 195.327 169.234 203.047 178.199 196.289C187.164 189.532 195.54 184.527 195.54 184.527" fill="#A0D5F0"/>
<path d="M162.002 160.011L137.316 147.946C137.316 147.946 134.401 146.257 135.796 143.553C136.083 142.995 136.567 142.554 137.924 141.87C144.218 138.68 249.652 116.712 249.652 116.712C249.652 116.712 252.62 116.155 254.202 117.025C254.598 117.211 254.937 117.499 255.184 117.859C255.432 118.219 255.58 118.639 255.612 119.075C255.688 119.847 255.655 120.626 255.516 121.39C255.414 122.053 255.248 122.657 255.051 123.614C253.053 133.391 224.416 204.429 224.416 204.429C224.416 204.429 222.716 208.582 218.774 208.178C217.806 208.074 216.869 207.776 216.019 207.302C215.168 206.828 214.422 206.187 213.825 205.418C207.06 197.718 182.976 176.106 177.651 171.349C177.532 171.24 177.436 171.107 177.373 170.958C177.309 170.809 177.277 170.648 177.281 170.486C177.257 170.061 177.78 169.611 177.78 169.611C177.78 169.611 229.876 134.955 231.715 130.806C231.858 130.485 231.521 130.269 231.016 130.348C227.781 131.047 169.727 157.226 163.32 160.115C162.879 160.184 162.427 160.148 162.002 160.011V160.011Z" fill="#F4FAFC"/>
<defs>
<linearGradient id="paint0_linear_2_17" x1="138.299" y1="661.975" x2="428.299" y2="264.975" gradientUnits="userSpaceOnUse">
<stop stop-color="#1F95D3"/>
<stop offset="1" stop-color="#34ACE1"/>
</linearGradient>
</defs>
</svg>
